<?xml version="1.0" encoding="utf-8"?>
<!-- Generator: Adobe Illustrator 22.1.0, SVG Export Plug-In . SVG Version: 6.00 Build 0)  -->
<svg version="1.1" id="_x3C_Layer_x3E_" xmlns="http://www.w3.org/2000/svg" xmlns:xlink="http://www.w3.org/1999/xlink" x="0px"
	 y="0px" viewBox="0 0 3006 1670" style="enable-background:new 0 0 3006 1670;" xml:space="preserve">
<style type="text/css">
	.st0{fill:#F6F6F6;}
	.st1{opacity:0.25;fill:url(#SVGID_1_);}
	.st2{opacity:0.9;fill:url(#SVGID_2_);}
	.st3{opacity:0.25;fill:url(#SVGID_3_);}
	.st4{opacity:0.9;fill:url(#SVGID_4_);}
	.st5{fill:#FFFFFF;}
	.st6{fill:#E2BF4D;}
	.st7{fill:#8D8D8D;}
	.st8{fill:#EFEFEF;}
	.st9{fill:url(#SVGID_5_);}
	.st10{fill:#CACACA;}
	.st11{fill:#F4F6FF;}
	.st12{fill:#E4E4E4;}
	.st13{fill:#90C0FC;}
	.st14{fill:#F2F2F2;}
	.st15{fill:url(#SVGID_6_);}
	.st16{fill:url(#SVGID_7_);}
	.st17{fill:url(#SVGID_8_);}
	.st18{fill:url(#SVGID_9_);}
	.st19{fill:url(#SVGID_10_);}
	.st20{fill:url(#SVGID_11_);}
	.st21{fill:#D4D4D4;}
	.st22{fill:url(#SVGID_12_);}
	.st23{fill:url(#SVGID_13_);}
	.st24{fill:url(#SVGID_14_);}
	.st25{fill:#77B9EA;}
	.st26{fill:#6484F6;}
	.st27{fill:#CD7250;}
	.st28{fill:#DBA585;}
	.st29{fill:#BD8A6D;}
	.st30{fill:#243141;}
	.st31{fill:#2C3D54;}
	.st32{fill:#CB4949;}
	.st33{fill:#CABEB8;}
	.st34{fill:#F3E4DC;}
	.st35{fill:#933636;}
	.st36{fill:#4C2C21;}
	.st37{fill:#C99A7D;}
	.st38{fill:#997761;}
	.st39{fill:#4C6E98;}
	.st40{fill:#D7C9C2;}
	.st41{fill:#3E4148;}
	.st42{fill:#393D3F;}
	.st43{fill:#807F7D;}
	.st44{fill:#323436;}
	.st45{fill:#4C5155;}
	.st46{fill:#9B3A3A;}
	.st47{fill:#EEE0D7;}
	.st48{fill:#A79D97;}
	.st49{fill:#547FB1;}
	.st50{fill:#8E3535;}
	.st51{fill:#363957;}
	.st52{fill:#70A5EE;}
	.st53{fill:#DCA787;}
	.st54{fill:#454971;}
	.st55{fill:#2E3048;}
	.st56{fill:#C38855;}
	.st57{fill:#DCD0C8;}
	.st58{fill:#DEDFE6;}
</style>
<rect class="st0" width="3006" height="1670"/>
<linearGradient id="SVGID_1_" gradientUnits="userSpaceOnUse" x1="594.3773" y1="-594.3773" x2="2232.5398" y2="1043.785">
	<stop  offset="0" style="stop-color:#18236B"/>
	<stop  offset="0.2058" style="stop-color:#1A266E"/>
	<stop  offset="0.371" style="stop-color:#203078"/>
	<stop  offset="0.5223" style="stop-color:#2B4089"/>
	<stop  offset="0.6652" style="stop-color:#3A56A1"/>
	<stop  offset="0.8022" style="stop-color:#4D74C0"/>
	<stop  offset="0.933" style="stop-color:#6497E5"/>
	<stop  offset="1" style="stop-color:#72ACFB"/>
</linearGradient>
<path class="st1" d="M1881,234.5c-346.8-12.9-631.1-110-934.9-234.5H0v395.2c70.9,23.7,213.4,16.9,304.6,2
	c276.7-45.3,405.3-61.8,681.3-4.6c381.9,79.1,608.9,134.4,980.1,86.4c390.8-50.5,645.7-239.3,1040.1-208.6v-37
	C2597.3,125.4,2307.9,250.4,1881,234.5z"/>
<linearGradient id="SVGID_2_" gradientUnits="userSpaceOnUse" x1="608.4198" y1="-608.4198" x2="2244.8911" y2="1028.0514">
	<stop  offset="0" style="stop-color:#18236B"/>
	<stop  offset="0.2058" style="stop-color:#1A266E"/>
	<stop  offset="0.371" style="stop-color:#203078"/>
	<stop  offset="0.5223" style="stop-color:#2B4089"/>
	<stop  offset="0.6652" style="stop-color:#3A56A1"/>
	<stop  offset="0.8022" style="stop-color:#4D74C0"/>
	<stop  offset="0.933" style="stop-color:#6497E5"/>
	<stop  offset="1" style="stop-color:#72ACFB"/>
</linearGradient>
<path class="st2" d="M1872,279.2c-407.9,0.5-733.8-118.6-1107.6-260C746.6,12.5,729,6.1,711.7,0H0v335.1
	c71.8,22.5,180.5,29.9,318.6,8.9c266.5-40.5,448.3-42.2,696.7,13c343.7,76.5,642.9,139.4,998.5,87.9
	c378.3-54.8,610.6-213,992.2-178.1v-29.8C2588.2,140.6,2302.6,278.7,1872,279.2z"/>
<linearGradient id="SVGID_3_" gradientUnits="userSpaceOnUse" x1="962.1618" y1="2070.6409" x2="2819.7385" y2="213.0641">
	<stop  offset="0" style="stop-color:#18236B"/>
	<stop  offset="0.2058" style="stop-color:#1A266E"/>
	<stop  offset="0.371" style="stop-color:#203078"/>
	<stop  offset="0.5223" style="stop-color:#2B4089"/>
	<stop  offset="0.6652" style="stop-color:#3A56A1"/>
	<stop  offset="0.8022" style="stop-color:#4D74C0"/>
	<stop  offset="0.933" style="stop-color:#6497E5"/>
	<stop  offset="1" style="stop-color:#72ACFB"/>
</linearGradient>
<path class="st3" d="M3006,900.7V399.3c-105.6,124.2-290.7-137.6-515.8-19c-335.5,176.8-460.4,266.4-871.8,175.5
	c-271.1-59.9-490,22-575.8,213.7c-52.1,116.3-25.6,216.1,54.4,291.4c80,75.3,199.9,136.8,220.3,237.2c1.8,9,2.7,18.3,2.7,27.8
	c0.1,97.1-104.5,142.7-308,90.1c-279-72.1-428.8,142-450.5,254h1568.7c14-70.8,38.5-121.7,101.8-137.7
	c138.8-35.1,187.6,112.8,362.7,108.2c98.9-2.6,153.7-95.2,103-186c-35-62.7,3.6-112.5,117.6-148.9c114-36.4,174.2-83.1,144.9-199.4
	C2937.7,1016.5,2954.9,943.6,3006,900.7z"/>
<linearGradient id="SVGID_4_" gradientUnits="userSpaceOnUse" x1="1064.7557" y1="2001.6926" x2="2833.6028" y2="232.8455">
	<stop  offset="0" style="stop-color:#18236B"/>
	<stop  offset="0.2058" style="stop-color:#1A266E"/>
	<stop  offset="0.371" style="stop-color:#203078"/>
	<stop  offset="0.5223" style="stop-color:#2B4089"/>
	<stop  offset="0.6652" style="stop-color:#3A56A1"/>
	<stop  offset="0.8022" style="stop-color:#4D74C0"/>
	<stop  offset="0.933" style="stop-color:#6497E5"/>
	<stop  offset="1" style="stop-color:#72ACFB"/>
</linearGradient>
<path class="st4" d="M3006,899.4V405.2c-101.6,119.3-278.9-123.6-497.9-14.2c-261.2,130.5-441.1,294.8-836.8,207.3
	c-260.8-57.6-487.3,21.2-569.9,205.6c-50.1,111.9-24.6,207.9,52.3,280.3c77,72.4,208.4,131.5,228,228.1c1.8,8.6,2.6,17.6,2.6,26.8
	c0.1,93.4-91,205.7-285.8,152c-199.4-55-344.6,71.3-365.5,179h1321.7c26.8-96.3,80.5-166,169.2-177.5
	c136.5-17.7,199.7,126.8,368.1,122.4c95.2-2.5,141.3-80.8,86.5-167.2c-54.8-86.4,36.6-124.7,146.2-159.7
	c109.7-35,143.3-95.4,123-208.9C2934.5,1005,2956,938.8,3006,899.4z"/>
<g>
	<path class="st5" d="M248,1083.5c4,0,8,0.9,11.3,2.5v5.9c-2.8-1.8-6.6-2.8-10.5-2.8c-7.3,0-14.7,4-14.7,13.8
		c0,10.7,7.8,13.8,14.5,13.8c2.1,0,4.1-0.4,5.6-1.1v-14.2h5.9v18.3c-3.6,1.6-7.8,2.5-11.9,2.5c-10.4,0-20.4-5.5-20.4-19.4
		C227.9,1089.7,238,1083.5,248,1083.5z"/>
	<path class="st5" d="M278.3,1095.2c10.2,0,13.7,8.2,12.1,15.7h-19.3c0.6,4.6,5.1,6.5,9.8,6.5c3.1,0,5.9-0.8,8.1-1.8v4.9
		c-2.4,1.1-5.6,1.8-9.2,1.8c-7.9,0-14.5-4.5-14.5-13.5C265.3,1099.5,272.3,1095.2,278.3,1095.2z M278.5,1100c-3.8,0-7.3,2.3-7.5,6.6
		h14.2C285.5,1104.4,284.2,1100,278.5,1100z"/>
	<path class="st5" d="M303.7,1086.8v9.1h9.3v5h-9.3v11.8c0,3.4,1.6,4.5,4.9,4.5c1.9,0,3.6-0.4,5.2-1v4.9c-1.9,0.7-4.4,1.1-6.9,1.1
		c-5,0-8.8-2.5-8.8-8.4V1101h-4.6v-5h4.6v-7.8L303.7,1086.8z"/>
	<path class="st5" d="M339.9,1095.2c3.5,0,6.7,0.9,9.2,2.2v5c-2.1-1.4-5.8-2.5-8.9-2.5c-2.3,0-4.8,0.7-4.8,2.8c0,5,15.5,2.7,15.5,12
		c0,5.7-5.2,7.5-11.1,7.5c-3.7,0-7.5-0.9-10-2.5v-5.1c2.7,1.8,6.6,2.7,9.8,2.7c3.2,0,5.6-0.5,5.6-2.6c0-4.8-15.5-2.8-15.5-12
		C329.7,1097.3,334.8,1095.2,339.9,1095.2z"/>
	<path class="st5" d="M363.7,1086.8v9.1h9.3v5h-9.3v11.8c0,3.4,1.5,4.5,4.9,4.5c1.9,0,3.6-0.4,5.2-1v4.9c-1.9,0.7-4.4,1.1-6.9,1.1
		c-5,0-8.8-2.5-8.8-8.4V1101h-4.6v-5h4.6v-7.8L363.7,1086.8z"/>
	<path class="st5" d="M402.1,1117.5c0.6,0,1.2-0.2,1.7-0.3v4.1c-1.1,0.4-2.4,0.6-3.6,0.6c-2.4,0-4.2-0.9-5.1-3
		c-2.5,2-5.7,3.3-9.7,3.3c-4.7,0-9-2.6-9-7.9c0-6.6,6.1-8.6,11.4-8.6c2.2,0,4.7,0.3,6.7,0.7v-0.9c0-3.2-2.4-5.5-6.7-5.5
		c-3.8,0-7,1-9.2,2v-5.2c2-0.7,5.7-1.7,9.8-1.7c7.3,0,11.9,3.5,11.9,11.2v9.2C400.2,1117.1,401.1,1117.5,402.1,1117.5z
		 M382.3,1114.1c0,2.5,2.2,3.8,4.8,3.8c2.7,0,5.4-1,7.4-3v-4.3c-1.5-0.3-3.7-0.6-5.6-0.6C385.7,1109.8,382.3,1110.9,382.3,1114.1z"
		/>
	<path class="st5" d="M423.6,1095.4v5.6c-4.6-0.6-8.6,1.4-10.2,5v15.6h-5.7v-25.7h5.1v4.2C414.8,1097,419,1095,423.6,1095.4z"/>
	<path class="st5" d="M435.5,1086.8v9.1h9.3v5h-9.3v11.8c0,3.4,1.6,4.5,4.9,4.5c1.9,0,3.6-0.4,5.2-1v4.9c-1.9,0.7-4.4,1.1-6.9,1.1
		c-5,0-8.8-2.5-8.8-8.4V1101h-4.6v-5h4.6v-7.8L435.5,1086.8z"/>
	<path class="st5" d="M461.6,1095.2c10.2,0,13.7,8.2,12.1,15.7h-19.3c0.6,4.6,5.1,6.5,9.8,6.5c3.1,0,5.9-0.8,8.1-1.8v4.9
		c-2.4,1.1-5.6,1.8-9.2,1.8c-7.9,0-14.5-4.5-14.5-13.5C448.6,1099.5,455.6,1095.2,461.6,1095.2z M461.8,1100c-3.8,0-7.3,2.3-7.5,6.6
		h14.2C468.8,1104.4,467.4,1100,461.8,1100z"/>
	<path class="st5" d="M505.6,1084.2v37.4h-5.1v-4.1c-2,2.5-5,4.8-9.8,4.8c-7.8,0-12.7-6.1-12.7-13.5c0-7.4,5-13.5,12.7-13.5
		c4.5,0,7.5,2,9.2,4v-15.1H505.6z M491.6,1100.3c-4.6,0-8,3.5-8,8.5c0,5,3.4,8.5,8,8.5c4,0,6.9-2.6,8.2-5.4v-6.3
		C498.5,1102.8,495.6,1100.3,491.6,1100.3z"/>
</g>
<g>
	<g>
		<g>
			<g>
				<g>
					<g>
						<g>
							<g>
								<path class="st6" d="M2589,503.8l-19.4-31.8c-1.6-2.6-0.8-6,1.8-7.6c2.6-1.6,6-0.8,7.6,1.8l13.7,22.5l36.5-21.6
									c2.6-1.6,6-0.7,7.6,1.9c1.6,2.6,0.7,6-1.9,7.6L2589,503.8z"/>
							</g>
						</g>
					</g>
				</g>
			</g>
			<g>
				<path class="st6" d="M2602.1,552.9c-38.5,0-69.9-31.4-69.9-69.9c0-38.5,31.4-69.9,69.9-69.9c38.5,0,69.9,31.4,69.9,69.9
					C2672,521.5,2640.6,552.9,2602.1,552.9z M2602.1,423.1c-33,0-59.9,26.9-59.9,59.9c0,33,26.9,59.9,59.9,59.9
					c33,0,59.9-26.9,59.9-59.9C2662,449.9,2635.1,423.1,2602.1,423.1z"/>
			</g>
		</g>
		<g>
			<g>
				<g>
					<g>
						<g>
							<g>
								<path class="st6" d="M2372.5,401l-12-19.7c-1-1.6-0.5-3.7,1.1-4.7c1.6-1,3.7-0.5,4.7,1.1l8.5,13.9l22.6-13.4
									c1.6-1,3.7-0.4,4.7,1.2c1,1.6,0.4,3.7-1.2,4.7L2372.5,401z"/>
							</g>
						</g>
					</g>
				</g>
			</g>
			<g>
				<path class="st6" d="M2380.6,431.3c-23.8,0-43.2-19.4-43.2-43.2c0-23.8,19.4-43.2,43.2-43.2c23.8,0,43.2,19.4,43.2,43.2
					C2423.8,411.9,2404.4,431.3,2380.6,431.3z M2380.6,351.1c-20.4,0-37,16.6-37,37c0,20.4,16.6,37,37,37c20.4,0,37-16.6,37-37
					C2417.6,367.7,2401,351.1,2380.6,351.1z"/>
			</g>
		</g>
		<g>
			<g>
				<g>
					<g>
						<g>
							<g>
								<path class="st6" d="M2150.4,328.4l-18.4-30.2c-1.5-2.5-0.7-5.7,1.7-7.2c2.5-1.5,5.7-0.7,7.2,1.7l13,21.3l34.6-20.5
									c2.5-1.5,5.7-0.6,7.2,1.8c1.5,2.5,0.7,5.7-1.8,7.2L2150.4,328.4z"/>
							</g>
						</g>
					</g>
				</g>
			</g>
			<g>
				<path class="st6" d="M2162.8,374.9c-36.5,0-66.3-29.7-66.3-66.3c0-36.5,29.7-66.3,66.3-66.3s66.3,29.7,66.3,66.3
					C2229,345.2,2199.3,374.9,2162.8,374.9z M2162.8,251.8c-31.3,0-56.8,25.5-56.8,56.8c0,31.3,25.5,56.8,56.8,56.8
					c31.3,0,56.8-25.5,56.8-56.8C2219.6,277.3,2194.1,251.8,2162.8,251.8z"/>
			</g>
		</g>
		<g>
			<g>
				<g>
					<g>
						<g>
							<g>
								<path class="st6" d="M1955.5,400.7l-12.2-19.9c-1-1.6-0.5-3.8,1.2-4.8c1.6-1,3.8-0.5,4.8,1.2l8.6,14.1l22.9-13.5
									c1.7-1,3.8-0.4,4.8,1.2c1,1.7,0.4,3.8-1.2,4.8L1955.5,400.7z"/>
							</g>
						</g>
					</g>
				</g>
			</g>
			<g>
				<path class="st6" d="M1963.7,431.5c-24.1,0-43.8-19.6-43.8-43.8c0-24.1,19.6-43.8,43.8-43.8c24.1,0,43.8,19.6,43.8,43.8
					C2007.5,411.8,1987.8,431.5,1963.7,431.5z M1963.7,350.1c-20.7,0-37.5,16.8-37.5,37.5c0,20.7,16.8,37.5,37.5,37.5
					c20.7,0,37.5-16.8,37.5-37.5C2001.2,367,1984.4,350.1,1963.7,350.1z"/>
			</g>
		</g>
		<g>
			<g>
				<g>
					<g>
						<g>
							<g>
								<path class="st6" d="M1784.4,305l-15.2-25c-1.2-2-0.6-4.7,1.4-6c2-1.2,4.7-0.6,6,1.4l10.8,17.6l28.7-17
									c2.1-1.2,4.7-0.5,5.9,1.5c1.2,2.1,0.5,4.7-1.5,5.9L1784.4,305z"/>
							</g>
						</g>
					</g>
				</g>
			</g>
			<g>
				<path class="st6" d="M1794.7,343.4c-30.2,0-54.8-24.6-54.8-54.8c0-30.2,24.6-54.8,54.8-54.8c30.2,0,54.8,24.6,54.8,54.8
					C1849.5,318.8,1824.9,343.4,1794.7,343.4z M1794.7,241.6c-25.9,0-47,21.1-47,47c0,25.9,21.1,47,47,47s47-21.1,47-47
					C1841.7,262.7,1820.6,241.6,1794.7,241.6z"/>
			</g>
		</g>
		<g>
			<g>
				<g>
					<g>
						<g>
							<g>
								<path class="st6" d="M1590.3,429l-16.9-27.7c-1.4-2.3-0.7-5.2,1.6-6.6c2.3-1.4,5.2-0.7,6.6,1.6l12,19.6l31.8-18.8
									c2.3-1.4,5.2-0.6,6.6,1.7c1.4,2.3,0.6,5.2-1.7,6.6L1590.3,429z"/>
							</g>
						</g>
					</g>
				</g>
			</g>
			<g>
				<path class="st6" d="M1601.6,471.7c-33.5,0-60.8-27.3-60.8-60.8c0-33.5,27.3-60.8,60.8-60.8s60.8,27.3,60.8,60.8
					C1662.4,444.4,1635.1,471.7,1601.6,471.7z M1601.6,358.8c-28.7,0-52.1,23.4-52.1,52.1c0,28.7,23.4,52.1,52.1,52.1
					s52.1-23.4,52.1-52.1C1653.7,382.2,1630.3,358.8,1601.6,358.8z"/>
			</g>
		</g>
		<g>
			<g>
				<g>
					<g>
						<g>
							<g>
								<path class="st6" d="M2517.4,315.3l-9.6-15.7c-0.8-1.3-0.4-3,0.9-3.8c1.3-0.8,3-0.4,3.8,0.9l6.8,11.1l18.1-10.7
									c1.3-0.8,3-0.3,3.7,1c0.8,1.3,0.3,3-1,3.8L2517.4,315.3z"/>
							</g>
						</g>
					</g>
				</g>
			</g>
			<g>
				<path class="st6" d="M2523.8,339.5c-19.1,0-34.6-15.5-34.6-34.6c0-19.1,15.5-34.6,34.6-34.6c19.1,0,34.6,15.5,34.6,34.6
					C2558.4,324,2542.9,339.5,2523.8,339.5z M2523.8,275.3c-16.3,0-29.6,13.3-29.6,29.6c0,16.3,13.3,29.6,29.6,29.6
					c16.3,0,29.6-13.3,29.6-29.6C2553.5,288.6,2540.2,275.3,2523.8,275.3z"/>
			</g>
		</g>
		<g>
			
				<rect x="2033.8" y="984.6" transform="matrix(-1 -1.224647e-16 1.224647e-16 -1 4162.9248 2258.6914)" class="st7" width="95.3" height="289.5"/>
		</g>
		<path class="st8" d="M2451.1,543.5h-739.3c-23.1,0-41.9,18.7-41.9,41.9v496.9c0,23.1,18.7,41.9,41.9,41.9h739.3
			c23.1,0,41.9-18.7,41.9-41.9V585.3C2493,562.2,2474.2,543.5,2451.1,543.5z"/>
		<g>
			
				<rect x="1702.2" y="481.7" transform="matrix(-1 -1.224647e-16 1.224647e-16 -1 4162.9248 1514.7227)" class="st5" width="758.6" height="551.4"/>
		</g>
		<g>
			<linearGradient id="SVGID_5_" gradientUnits="userSpaceOnUse" x1="1702.1865" y1="514.9585" x2="2460.7383" y2="514.9585">
				<stop  offset="0" style="stop-color:#81D3E4"/>
				<stop  offset="1" style="stop-color:#6076FA"/>
			</linearGradient>
			<polygon class="st9" points="1702.2,548.3 2460.7,548.3 2460.7,481.7 1702.2,481.7 			"/>
		</g>
		<g>
			<path class="st10" d="M2368.4,1074.7c0,14.7,14,26.6,31.2,26.6c17.2,0,31.2-11.9,31.2-26.6c0-14.7-14-26.5-31.2-26.5
				C2382.4,1048.2,2368.4,1060,2368.4,1074.7z"/>
		</g>
		<rect x="1867.1" y="1263.2" class="st10" width="428.8" height="21.9"/>
		<path class="st11" d="M1829.5,527.5h-83c-6.9,0-12.6-5.6-12.6-12.6l0,0c0-7,5.6-12.6,12.6-12.6h83c6.9,0,12.6,5.6,12.6,12.6l0,0
			C1842.1,521.9,1836.4,527.5,1829.5,527.5z"/>
		<rect x="1757.8" y="780.3" class="st12" width="397.1" height="13.7"/>
		<rect x="1757.8" y="804.9" class="st12" width="294.6" height="13.7"/>
		<rect x="1757.8" y="858.3" class="st12" width="186.8" height="13.7"/>
		<rect x="1757.8" y="882.9" class="st12" width="335.6" height="13.7"/>
		<rect x="1757.8" y="941.7" class="st12" width="314.3" height="13.7"/>
		<rect x="1757.8" y="966.2" class="st12" width="383.8" height="13.7"/>
		<rect x="1738.4" y="780.3" class="st13" width="10" height="38.2"/>
		<rect x="1738.4" y="858.3" class="st13" width="10" height="38.2"/>
		<rect x="1738.4" y="941.7" class="st13" width="10" height="38.2"/>
		<g>
			<g>
				<path class="st13" d="M2270.9,997.1L2270.9,997.1c-15.1,0-27.3-12.2-27.3-27.3l0,0c0-15.1,12.2-27.3,27.3-27.3l0,0
					c15.1,0,27.4,12.2,27.4,27.3l0,0C2298.3,984.9,2286,997.1,2270.9,997.1z"/>
			</g>
			<g>
				<g>
					<g>
						<path class="st14" d="M2269.2,981.8l-13.8-12.1c-1.1-1-1.3-2.7-0.3-3.8c1-1.1,2.7-1.3,3.8-0.3l9.8,8.5l13.9-15.6
							c1-1.1,2.7-1.2,3.8-0.2c1.1,1,1.2,2.7,0.2,3.8L2269.2,981.8z"/>
					</g>
				</g>
			</g>
		</g>
		<g>
			<g>
				<g>
					<path class="st13" d="M2285.8,913.8H2256c-6.9,0-12.5-5.6-12.5-12.5v-29.8c0-6.9,5.6-12.5,12.5-12.5h29.8
						c6.9,0,12.5,5.6,12.5,12.5v29.8C2298.3,908.2,2292.7,913.8,2285.8,913.8z M2256,862.5c-5,0-9,4-9,9v29.8c0,5,4,9,9,9h29.8
						c5,0,9-4,9-9v-29.8c0-5-4-9-9-9H2256z"/>
				</g>
			</g>
		</g>
		<g>
			<g>
				<g>
					<path class="st13" d="M2368.2,830.5h-29.8c-6.9,0-12.5-5.6-12.5-12.5v-29.8c0-6.9,5.6-12.5,12.5-12.5h29.8
						c6.9,0,12.5,5.6,12.5,12.5V818C2380.6,824.9,2375,830.5,2368.2,830.5z M2338.4,779.2c-5,0-9,4-9,9V818c0,5,4,9,9,9h29.8
						c5,0,9-4,9-9v-29.8c0-5-4-9-9-9H2338.4z"/>
				</g>
			</g>
		</g>
		<g>
			<g>
				<g>
					<path class="st13" d="M2368.2,997.1h-29.8c-6.9,0-12.5-5.6-12.5-12.5v-29.8c0-6.9,5.6-12.5,12.5-12.5h29.8
						c6.9,0,12.5,5.6,12.5,12.5v29.8C2380.6,991.5,2375,997.1,2368.2,997.1z M2338.4,945.9c-5,0-9,4-9,9v29.8c0,5,4,9,9,9h29.8
						c5,0,9-4,9-9v-29.8c0-5-4-9-9-9H2338.4z"/>
				</g>
			</g>
		</g>
		<g>
			<g>
				<path class="st13" d="M2353.3,913.8L2353.3,913.8c-15.1,0-27.3-12.2-27.3-27.3l0,0c0-15.1,12.2-27.4,27.3-27.4h0
					c15.1,0,27.4,12.2,27.4,27.4l0,0C2380.6,901.5,2368.4,913.8,2353.3,913.8z"/>
			</g>
			<g>
				<g>
					<g>
						<path class="st14" d="M2351.5,898.5l-13.8-12.1c-1.1-1-1.3-2.7-0.3-3.8c1-1.1,2.7-1.2,3.8-0.3l9.8,8.5l13.9-15.6
							c1-1.1,2.7-1.2,3.8-0.2c1.1,1,1.2,2.7,0.2,3.8L2351.5,898.5z"/>
					</g>
				</g>
			</g>
		</g>
		<g>
			<g>
				<path class="st13" d="M2270.9,830.4L2270.9,830.4c-15.1,0-27.3-12.2-27.3-27.4l0,0c0-15.1,12.2-27.3,27.3-27.3l0,0
					c15.1,0,27.4,12.2,27.4,27.3l0,0C2298.3,818.2,2286,830.4,2270.9,830.4z"/>
			</g>
			<g>
				<g>
					<g>
						<path class="st14" d="M2269.2,815.1l-13.8-12.1c-1.1-1-1.3-2.7-0.3-3.8c1-1.1,2.7-1.3,3.8-0.3l9.8,8.5l13.9-15.6
							c1-1.1,2.7-1.2,3.8-0.2c1.1,1,1.2,2.7,0.2,3.8L2269.2,815.1z"/>
					</g>
				</g>
			</g>
		</g>
		<g>
			
				<linearGradient id="SVGID_6_" gradientUnits="userSpaceOnUse" x1="-5242.3076" y1="1048.6824" x2="-5092.5479" y2="1048.6824" gradientTransform="matrix(-1 0 0 1 -3615.0078 0)">
				<stop  offset="0" style="stop-color:#81D3E4"/>
				<stop  offset="1" style="stop-color:#6076FA"/>
			</linearGradient>
			<path class="st15" d="M1614.2,850.8c-12.9-6.2-25.8,34.9-25.8,34.9c-21.9,29-52.6-9.6-49.6,33.8c5.2,75.9-87.3,23.9-44.6,103.1
				c42.7,79.2-37.7,44.8-11.2,108.7c26.5,63.9-7.9,140,32.1,108.7c0,0,35.2-77.1,71.4-101c36.3-23.9-21.7-52.2-10.4-84.6
				c16.5-47.1,56.2-45.2,27.6-95.8C1575.1,908,1658.1,871.8,1614.2,850.8z"/>
			<g>
				<path class="st5" d="M1502.5,1210.9c17.3-12.2,37.6-97,38.8-147.5c0.6-25.9,8.3-36.7,15-46.2c6.5-9.1,12-17,8.8-35
					c-6.2-34.5,10.1-49.3,10.3-49.5l-1.9-2.2c-0.7,0.6-17.7,16-11.2,52.1c3,16.9-2,23.9-8.3,32.8c-6.6,9.4-14.9,21-15.5,47.8
					c-1.3,54.2-22,134.3-37.6,145.3L1502.5,1210.9z"/>
			</g>
			<g>
				
					<linearGradient id="SVGID_7_" gradientUnits="userSpaceOnUse" x1="-5132.4473" y1="1132.2496" x2="-4997.0171" y2="1132.2496" gradientTransform="matrix(-1 0 0 1 -3615.0078 0)">
					<stop  offset="0" style="stop-color:#81D3E4"/>
					<stop  offset="1" style="stop-color:#6076FA"/>
				</linearGradient>
				<path class="st16" d="M1466.2,1186.2c-1.6-3.7-3.3-7.5-5.2-11.6c-9.9-20.9-18.6-24.3-33.2-30c-3.5-1.4-7.6-3-12-5
					c-20.8-9.3-16.8-23.1-13.2-35.3c0.5-1.7,1-3.4,1.4-5.1c1.8-7.1-1.7-10.7-7-16.2c-4-4-8.9-9.1-12.7-17c-4.1-8.7-2-13.3,0.5-15.7
					c5.3-5,17.4-4.1,28.9,2.2l0,0c3.6,1.9,6.5,5,9.6,8.3c7.3,7.7,16.4,17.2,39.5,17.3c13.1,0.1,20.3,1.9,24.1,6.1
					c4.2,4.8,3.4,11.9,2.3,21.7c-0.4,3.4-0.8,7.3-1.1,11.4c-1.6,24.9,13.1,42.8,13.3,43c8.8,10.5,19.6,32.1,14.9,45.5
					c-2,5.6-6.3,9.1-13,10.5c-2.7,0.5-5.1,0.8-7.3,0.8C1479.9,1217.2,1474,1203.9,1466.2,1186.2z M1412.4,1055.2
					c-10.3-5.6-21.2-6.7-25.6-2.6c-3.3,3.1-1.7,8.5,0.1,12.4c3.6,7.5,8.1,12.1,12.1,16.2c5.6,5.7,10,10.2,7.7,18.9
					c-0.4,1.7-0.9,3.4-1.4,5.2c-3.5,12.1-6.9,23.5,11.6,31.8c4.3,2,8.3,3.5,11.8,4.9c14.6,5.8,24.3,9.5,34.7,31.4
					c1.9,4.1,3.6,7.9,5.3,11.6c9,20.3,14.4,32.5,33.9,28.6c5.6-1.1,9.3-4,10.9-8.6c4.1-11.8-5.7-32.3-14.4-42.7
					c-0.6-0.8-15.6-19-13.9-45c0.3-4.2,0.7-8.1,1.1-11.6c1-9.1,1.8-15.7-1.6-19.5c-3.1-3.5-9.9-5-21.9-5.1
					c-24.3-0.1-33.8-10.1-41.5-18.2C1418.2,1059.7,1415.5,1056.9,1412.4,1055.2L1412.4,1055.2z"/>
			</g>
			<g>
				
					<linearGradient id="SVGID_8_" gradientUnits="userSpaceOnUse" x1="-5120.8721" y1="1151.9448" x2="-5019.2217" y2="1151.9448" gradientTransform="matrix(-1 0 0 1 -3615.0078 0)">
					<stop  offset="0" style="stop-color:#81D3E4"/>
					<stop  offset="1" style="stop-color:#6076FA"/>
				</linearGradient>
				<path class="st17" d="M1503,1233.7l2.9-0.1c-0.1-2.7-3.7-66-29.2-84.5c-27.9-20.3-36.7-42.2-40.9-56.8
					c-4.9-17.3-30.1-21.9-31.1-22.1l-0.5,2.8c0.2,0,24.4,4.5,28.9,20c4.3,15.1,13.3,37.5,41.9,58.4
					C1499.3,1169.1,1503,1233.1,1503,1233.7z"/>
			</g>
			
				<linearGradient id="SVGID_9_" gradientUnits="userSpaceOnUse" x1="-5157.5811" y1="1070.1449" x2="-5039.1973" y2="1070.1449" gradientTransform="matrix(-1 0 0 1 -3615.0078 0)">
				<stop  offset="0" style="stop-color:#81D3E4"/>
				<stop  offset="1" style="stop-color:#6076FA"/>
			</linearGradient>
			<path class="st18" d="M1444.9,914.7c18.1-6.2,14.3,28.6,21.9,54.4c7.6,25.8,84.9,11.2,52.5,75.8c-32.4,64.5,41,21.6,19.1,77.9
				c-22,56.3-1.9,116.5-25.8,101.2c-23.9-15.3-13.4-86.2-38.2-94.6c-24.8-8.4-28.9-18.3-4.3-41.2c24.6-22.9-64.4-45.6-42.4-91.9
				C1449.7,950,1424,921.8,1444.9,914.7z"/>
			<g>
				<path class="st5" d="M1501.6,1221.2c2.3-9.6,21.7-94.5,3.6-104.7c-16-9-15.6-44.2-13.1-77.4c2.2-29.4-35.5-43.1-37.1-43.7
					l-1,2.7c0.4,0.1,37.3,13.6,35.2,40.8c-2.6,34.1-2.8,70.3,14.5,80.1c13.7,7.8,1.1,76-4.9,101.6L1501.6,1221.2z"/>
			</g>
			
				<linearGradient id="SVGID_10_" gradientUnits="userSpaceOnUse" x1="1454.4688" y1="1239.9473" x2="1563.7104" y2="1239.9473" gradientTransform="matrix(1 0 0 1 6.0278 0)">
				<stop  offset="0" style="stop-color:#E59148"/>
				<stop  offset="1" style="stop-color:#F1CC52"/>
			</linearGradient>
			<polygon class="st19" points="1569.7,1191 1543.9,1288.9 1486.3,1288.9 1460.5,1191 			"/>
			
				<linearGradient id="SVGID_11_" gradientUnits="userSpaceOnUse" x1="1454.4688" y1="1239.9473" x2="1563.7104" y2="1239.9473" gradientTransform="matrix(1 0 0 1 6.0278 0)">
				<stop  offset="0" style="stop-color:#B37239"/>
				<stop  offset="1" style="stop-color:#F1CC52"/>
			</linearGradient>
			<path class="st20" d="M1569.7,1191c0,0-56.8,10.7-56.8,97.9h-26.7l-25.8-97.9H1569.7z"/>
		</g>
		<rect x="1777.1" y="732.4" class="st21" width="58.4" height="7.2"/>
		<rect x="1763" y="719.5" class="st21" width="86.8" height="7.2"/>
		<linearGradient id="SVGID_12_" gradientUnits="userSpaceOnUse" x1="1791.4014" y1="620.7051" x2="1821.5781" y2="620.7051">
			<stop  offset="0" style="stop-color:#81D3E4"/>
			<stop  offset="1" style="stop-color:#6076FA"/>
		</linearGradient>
		<path class="st22" d="M1821.6,620.7c0,8.3-6.8,15.1-15.1,15.1c-8.3,0-15.1-6.8-15.1-15.1s6.8-15.1,15.1-15.1
			C1814.8,605.6,1821.6,612.4,1821.6,620.7z"/>
		<linearGradient id="SVGID_13_" gradientUnits="userSpaceOnUse" x1="1779.0068" y1="673.5188" x2="1833.709" y2="673.5188">
			<stop  offset="0" style="stop-color:#81D3E4"/>
			<stop  offset="1" style="stop-color:#6076FA"/>
		</linearGradient>
		<path class="st23" d="M1833.7,669.9v28.7c-8.3,3.8-17.6,5.9-27.3,5.9c-9.8,0-19-2.1-27.4-5.9v-28.7c0-15.1,12.2-27.4,27.4-27.4
			C1821.5,642.5,1833.7,654.8,1833.7,669.9z"/>
		<g>
			<linearGradient id="SVGID_14_" gradientUnits="userSpaceOnUse" x1="1806.3594" y1="591.4247" x2="1806.3594" y2="732.8646">
				<stop  offset="0" style="stop-color:#D3D8DE"/>
				<stop  offset="1" style="stop-color:#FFFFFF"/>
			</linearGradient>
			<path class="st24" d="M1806.4,706.3c-9.8,0-19.3-2-28.1-6.1c-24.2-11-39.9-35.3-39.9-61.9c0-37.5,30.5-68,68-68
				c37.5,0,68,30.5,68,68c0,26.6-15.7,50.9-39.9,61.9C1825.6,704.2,1816.2,706.3,1806.4,706.3z M1806.4,573.9
				c-35.5,0-64.4,28.9-64.4,64.4c0,25.2,14.8,48.2,37.8,58.6c8.4,3.8,17.3,5.7,26.6,5.7c9.3,0,18.2-1.9,26.6-5.7
				c22.9-10.4,37.8-33.5,37.8-58.6C1870.7,602.8,1841.9,573.9,1806.4,573.9z"/>
		</g>
		<rect x="1912.2" y="572.7" class="st12" width="31.5" height="7"/>
		<rect x="2004.2" y="572.7" class="st12" width="37" height="7"/>
		<rect x="2096.5" y="572.7" class="st12" width="23.1" height="7"/>
		<rect x="2186.8" y="572.7" class="st12" width="42.2" height="7"/>
		<rect x="2270.9" y="572.7" class="st12" width="34.9" height="7"/>
		<rect x="2353.3" y="572.7" class="st12" width="44.1" height="7"/>
		<rect x="1912.2" y="592.7" class="st12" width="1.1" height="107.9"/>
		<rect x="2003.7" y="592.7" class="st12" width="1.1" height="107.9"/>
		<rect x="2096.5" y="592.7" class="st12" width="1.1" height="107.9"/>
		<rect x="2186.3" y="592.7" class="st12" width="1" height="107.9"/>
		<rect x="2270.4" y="592.7" class="st12" width="1.1" height="107.9"/>
		<rect x="2352.7" y="592.7" class="st12" width="1" height="107.9"/>
		<g>
			<polygon class="st25" points="1912.2,700.7 1940.9,660.3 1962.5,690.8 1996,643.5 2011.5,643.5 2034.4,657.5 2062,618.7 
				2099.8,672 2123.4,638.8 2129.8,638.8 2142.3,621.1 2175.9,668.6 2191.8,646.3 2207.9,669 2235.6,629.9 2256.8,659.7 
				2272.2,659.7 2305,613.6 2339.2,661.8 2397.4,613.6 2397.4,700.7 			"/>
		</g>
		<g>
			<polygon class="st26" points="1992.4,700.7 2015.9,667.6 2029.6,687 2057.5,647.6 2084,684.9 2104.9,684.9 2123.7,658.5 
				2148.3,658.5 2175,696.1 2192.4,671.6 2202.1,685.3 2234,640.4 2257.6,673.7 2278.2,673.7 2301.6,640.8 2311.9,655.3 
				2320.3,643.4 2342.1,674 2364.6,674 2397.4,627.9 2397.4,700.7 			"/>
		</g>
		<g>
			<path class="st27" d="M2547,911.4c0,0,3.2,31.6-2.6,39.5c0,0,15.5-3.4,19-8.7C2566.9,936.9,2547,911.4,2547,911.4z"/>
			<g>
				<path class="st28" d="M2450.4,1012.3c0,0-5.6-3.8-6.5-4.3c-0.9-0.5-3.8-0.5-7.1-0.1c-3.3,0.4-7.6,2.4-7.8,2.9
					c-0.3,0.5-0.8,0.9-0.5,2.4c0.2,1.5,1.2,2.6,1.2,2.6s-0.6,1.9,0.7,3.2c0,0-0.5,1.8,1.3,3c0,0-0.4,1.8,0.9,2.6c0,0,2.9-0.1,4,0.2
					c1.1,0.3,7.1-0.3,12.7-1.8C2449.3,1023,2455.6,1021.6,2450.4,1012.3z"/>
			</g>
			<g>
				<path class="st29" d="M2440.9,1014.9c0,0,1.7,2.9,2.6,3.5c0.9,0.6-4.3,6.2-4.3,6.2S2437.4,1017.1,2440.9,1014.9z"/>
			</g>
			<g>
				<path class="st28" d="M2453.8,1012.8c0,0-3.5-0.4-5.7-1.4c-2.2-1,0.4,11,0.4,11s5.3-3.6,8.7-3.8
					C2460.6,1018.6,2453.8,1012.8,2453.8,1012.8z"/>
			</g>
			<g>
				<path class="st30" d="M2599.9,1332.2c0,0-11,16.1-14.9,19.5c0,0-7.7,4-7.9,7.2c-0.4,6-1,11.7,9.1,11.9
					c10.1,0.3,16.7-2.1,18.5-8.2c1.9-6.1,6.3-11.4,6.3-11.4v12.8h2.3c0,0,0.6-12.4,0.7-14.7c0.1-2.3,1.6-11.1-3.2-14.9
					C2606.1,1330.5,2599.9,1332.2,2599.9,1332.2z"/>
			</g>
			<g>
				<path class="st30" d="M2583.6,1352.5c0,0,5.5,1.5,12-0.1c6.5-1.6,12.8-17.2,14.7-18.5l1.7-6.3h-12.7c0,0-0.1,4.7-2.2,8.6
					C2595,1340.3,2583.6,1352.5,2583.6,1352.5z"/>
			</g>
			<g>
				<path class="st30" d="M2528.3,1326.1c0,0-1.7,3.9-4.8,8c-2.3,3-9.4,15.3-12.5,16.1c-3.1,0.9-12.8,2.6-13.7,8
					c-0.9,5.4-1.3,9.3,8.3,9.7c9.6,0.4,15.8,1,20.4-5.7c4.6-6.7,11.8-11.5,11.8-11.5v17.5h3.7c0,0,1.7-18.2,2.7-19.5
					c1-1.3,3.6-15.3-5.3-22.5C2530.1,1318.9,2528.3,1326.1,2528.3,1326.1z"/>
			</g>
			<g>
				<path class="st30" d="M2511,1350.2c0,0,8.6,2.1,11.8,0c3.3-2.1,14.4-21,18.1-22.1c0,0-3.6-7.3-12.6-2
					C2528.3,1326.1,2513.5,1347.1,2511,1350.2z"/>
			</g>
			<g>
				<path class="st31" d="M2604.8,1064.4c0,0,12.1,15.7,15.3,34.3c3.3,18.6-1.9,81-1.8,90.2c0.1,9.2,8.1,37.8,6.4,55.1
					c-1.7,17.3-10.7,89.6-10.7,89.6l-20.9-0.4c0,0,4.2-78,3.1-85.3c-1.1-7.3-4.5-38.2-4.9-41.2c-0.4-3-23.8-82.1-23.8-95.6
					S2575.7,1042.5,2604.8,1064.4z"/>
			</g>
			<g>
				<path class="st31" d="M2544.2,1070.5c0,0-19.8,75.6-22.2,86.1s-7.1,24.2-6.8,26.1c0.2,1.9,2.5,34.2,2.5,34.2l5.6,109.9h20.9
					c0,0,6.7-69.9,7.8-84c1.1-14.1-7.7-35.9-5.6-41.9c2.1-6,34.4-75,34.4-75S2605.3,1048.5,2544.2,1070.5z"/>
			</g>
			<g>
				<path class="st32" d="M2550.3,957.3c0,0-7.9,0.7-13.9,7.2c-6,6.4-11.6,16.6-13.2,20.1c-1.6,3.4-23.5,35.1-24.7,35.8
					c-1.1,0.7-10.7-1.8-18.4-2.5c-12.6-1-31.3-7.4-31.3-7.4l-2.8,14.2c0,0,46.2,14.9,56.9,12.3c13-3.2,43.1-41.7,43.1-41.7
					S2568.3,969,2550.3,957.3z"/>
			</g>
			<g>
				<path class="st32" d="M2564.2,951.8c0,0-10.3,4.8-13.8,5.6c-3.6,0.7-17.4,18.7-19.8,25.2c-2.4,6.6,0,16.4,5,27.9
					c5,11.5,0.3,15.4,2.6,26.9c2.3,11.5,2.3,43,1.8,49.4c-0.4,6.4,66,18.5,79.2,6.8c0,0-9-29.6-19.6-40.7
					c-2.3-2.4-2.1-18.4-0.5-22.4c1.6-4,19.2-33.8,19.2-33.8s1.3-30.2-6.4-36.2c-6.7-5.2-25-7.1-28.2-8.2
					C2580.4,951.3,2570.9,950.8,2564.2,951.8z"/>
			</g>
			<g>
				<path class="st33" d="M2560.9,974.6l-6.2-7.3l5.4-19.2C2560.1,948.1,2561.9,958.8,2560.9,974.6z"/>
			</g>
			<g>
				<path class="st28" d="M2600,957.3c0,0,12.9-3.7,20.3,10.5s5.6,22,7.3,28.4c1.7,6.4,8.6,49.3,9,51.2c0.4,1.9,7,23.7,6.1,30.4
					c-0.9,6.7-7,57.4-6.7,59.2c0.3,1.7-11.8-1.6-11.8-1.6s0.5-51.8,0.1-56.1c-0.4-4.3-0.9-26.7-4.1-32.5
					c-3.2-5.8-11.1-41.1-12.8-44.7C2605.6,998.4,2589.1,961.9,2600,957.3z"/>
			</g>
			<g>
				<path class="st28" d="M2559.3,939.9c0,0,2.1,18.8,1.6,25c0,0,10.7,10.7,22.8-12.5c0,0-5.1-9.5-1.3-22.6
					C2586.3,916.8,2559.3,939.9,2559.3,939.9z"/>
			</g>
			<g>
				<polygon class="st28" points="2560.9,964.9 2560.9,974.6 2572.3,964.5 				"/>
			</g>
			<g>
				<polygon class="st33" points="2560.9,974.6 2566,968.3 2583.1,951.2 2589.6,954.1 				"/>
			</g>
			<g>
				<polygon class="st34" points="2554.6,967.3 2546.8,969.5 2560.1,948.1 				"/>
			</g>
			<g>
				<polygon class="st34" points="2566,968.3 2573.2,979.8 2589.8,953.7 2582.7,950 				"/>
			</g>
			<path class="st35" d="M2529.4,1014.7c0,0-2.6-17.1,0.2-27.5c0,0,1.5,8.4,5.2,21.4L2529.4,1014.7z"/>
			<path class="st35" d="M2609.1,1012.5c0,0-7.1-23.5-7.5-24.8c0,0,0.5,21.6,3.2,32.3C2604.8,1020,2607.4,1015.4,2609.1,1012.5z"/>
			<polygon class="st36" points="2344.8,894.8 2456.5,1035.5 2452.6,1038.5 			"/>
			<g>
				<path class="st37" d="M2429.9,1010.7c0,0,8.4-0.8,8.7,0.5c0.3,1.3-0.4,2-0.4,2l3.6,1.2c0,0,1.9,2.2-1,3.6c0,0,2,1.8-1,2.9
					c0,0,0.8,1.8-0.5,2.5c-1.3,0.7-6.7,1-6.7,1s-1.2-0.5-0.9-2.6c0,0-1.7-1.1-1.3-3c0,0-1.2-1.1-0.7-3.2c0,0-2.6-2.6-0.6-4.9
					C2429.1,1010.8,2429.6,1010.7,2429.9,1010.7z"/>
			</g>
			<g>
				<path class="st28" d="M2443.7,1008c0,0-4.9,3.1-6.8,6c-0.4,0.6-0.7,1.4-0.3,2c0.4,0.6,1.9,0.8,4.1-0.4c2.2-1.2,5.6-1.8,5.6-1.8
					S2448.2,1011.8,2443.7,1008z"/>
			</g>
			<path class="st28" d="M2567.9,875.8c0,0-18.9-0.5-22.4,21.9c-3.5,22.4,4.6,42,7.7,45.2c3.1,3.1,22,0.8,26.5-10.9
				c4.5-11.6,11-20.1,10-30.1C2588.8,892,2591.1,875.5,2567.9,875.8z"/>
			<path class="st27" d="M2544.7,906.2c0,0-5.1-27.9,20-32.9c25.1-5,33.9,12.2,36.3,22.4c2.4,10.2-0.4,39-0.4,39
				s-16.7,14.7-26.7,18.5c0,0,8.4-30.6,5.2-52.6c0,0-20.4,3.2-33.9-0.1C2545.2,900.4,2544.8,905,2544.7,906.2z"/>
			<path class="st38" d="M2559.7,944.1c0,0,6.6,0,15.5-5.8c0,0-6.3,7.9-15,10.8C2560.1,949,2559.6,945.1,2559.7,944.1z"/>
			
				<rect x="2592.1" y="1093.8" transform="matrix(-0.9869 -0.1611 0.1611 -0.9869 5043.1665 2651.1685)" class="st39" width="73.9" height="54.7"/>
			<g>
				<g>
					<g>
						<g>
							<g>
								<path class="st28" d="M2638.5,1153.1c0,0,1.1-1.9,1.2-2.9c0,0,0-1.9,0.2-3.3c0-0.4,0.1-0.8,0.1-1.1c0.2-1,1-3.2,0.9-5.8
									c-0.2-2.6-3.7-13.5-3.7-13.5l-6.5,0.2l-6.1-0.7c0,0-7.3,14-7.5,16.4c0,0.2,0,0.5,0,0.7c0.1,2.1,1,3.6,1.2,4.6
									c0.1,0.4,1,4.3,2,4.8c1.5,0.7,2.8,0.7,3.8,0.1c0,0,3,1.3,5.1,0.8c0,0,2.7,1.3,5.1-0.2
									C2634.4,1153.4,2637.2,1154.4,2638.5,1153.1z"/>
							</g>
						</g>
					</g>
				</g>
			</g>
			<g>
				<path class="st32" d="M2600,957.3c0,0,12.9-3.7,20.3,10.5s7.4,20.3,8.4,27.3c0.9,6.6,10,45.6,10.4,47.5c0.4,1.9,3.8,25.2,4,34.1
					c0.2,6.8-1.9,52-1.6,53.8c0.3,1.7-20.5-3-20.5-3s2.3-40.8,1.9-45.1c-0.4-4.3-1.3-25.6-3.4-31.9c-2.5-7.4-12.1-44.4-13.9-48.1
					C2604,998.8,2589.1,961.9,2600,957.3z"/>
			</g>
		</g>
		<g>
			<g>
				<g>
					<path class="st28" d="M1770.1,992.5c0,0,1.6-8.6,1.9-9.9c0.3-1.3,3.2-4,7-6c3.7-2,8.5-5.2,9.2-5c0.7,0.2,1.4,0.1,2.6,1.6
						c1.1,1.5,1.3,3.4,1.3,3.4s2.3,1.2,2.3,3.6c0,0,2.1,1.2,1.6,3.9c0,0,2,1.3,1.5,3.2c0,0-2.7,2.6-3.4,3.8
						c-0.7,1.2-6.7,6.2-13.2,10C1781,1001.1,1773.6,1002.7,1770.1,992.5z"/>
				</g>
			</g>
			<g>
				<g>
					<path class="st28" d="M1781,1001.1c0,0-8.3,3.7-11.7,2.7c-3.4-1-2.1-10.7-2.1-10.7l4.7-4.7L1781,1001.1z"/>
				</g>
			</g>
			<g>
				<path class="st40" d="M1696.5,1006.3c6.9-3.8,0.2-13.8,0.1-14.1l0,0c0.2,0.5,2,6.8,4.2,14.6c3.8,13.1,9.1,30.5,11.4,31.4
					c3.3,1.2,54.2-29.1,63-34.5l-5.4-14.2l-48.5,22.8l-24.3-64c-0.6-0.4-4.3-4.2-9.1-6.5c-4.9-2.3-10.7-5.7-16.1-8.6
					c-2.7-1.5-5.3-2.8-7.5-3.9l-0.3-0.2v0c-3.7-1.7-6.1-2.8-6.1-2.8s0,0,0,0c-0.1,0-0.7-0.1-1.6-0.2c-5.1-0.5-21-2-26.3-2.3
					c-0.4,0-0.8,0-1.1-0.1c-0.2,0-0.4,0-0.5,0c-0.7,0-3.9,1.2-8.3,2.8h0c-0.2,0.1-0.3,0.1-0.5,0.2c-0.2,0.1-0.4,0.2-0.6,0.2
					c-0.4,0.1-0.8,0.3-1.1,0.4c-0.8,0.3-1.6,0.6-2.4,0.9c-0.3,0.1-0.6,0.2-0.8,0.3c-8.6,3.4-18.5,7.6-20.8,9.3
					c-1.5,1.1-6.4,10.2-12,21.4c-7.2,23.1-16.3,58.4-16.6,67.1c0,0.1,0,0.3,0,0.4c0,1,1.9,5,4.9,10.8c4.4-8.9,7.9-16.1,9-18.8
					c3.7-8.8,23-29,23-29s0,0,0,0c0,0,0,0,0,0c0,0,0,0,0,0c0,0,0,0.1,0,0.1c0,0,0,0.1,0,0.2c0,0,0,0.1,0,0.1c0,0,0,0.1,0,0.1
					c1,3.9,7.5,28.3,7.7,40.3c0.3,13.1,3.7,37.2,3.7,37.2l0,0l4,0.6l8.9,1.3l1.1,0.1l2.6,0.4l23.6,3.3l8.4,1.2l1.1,0.2l4.8,0.7
					l13.2,1.9l3.4,0.5l0,0l2.5,0.4l3.5,0.5c0,0,0,0,0,0c0.1-0.1,3.4-4.6,2.9-14.6C1693.5,1064.2,1683.4,1013.6,1696.5,1006.3z"/>
			</g>
			<g>
				<path class="st28" d="M1646.5,856.9c0,0,26.7-8.6,23.5,26.3c-3.2,34.9-9.5,38.2-26.6,32.5c-17.1-5.6-17.6-27.8-19.3-38.5
					C1622.3,866.5,1637.9,858,1646.5,856.9z"/>
			</g>
			<g>
				<path class="st28" d="M1660.6,933.3c0,0-10.9,13.9-31.1,3.9c0,0,1.8-28.1-1.6-41.5c-3.4-13.3,26.8,18.7,26.8,18.7
					c-0.3,0.2-0.5,1.5-0.4,3.4c0.1,1.6,0.3,3.5,0.8,5.5C1656,927.8,1657.8,932.5,1660.6,933.3z"/>
			</g>
			<g>
				<path class="st41" d="M1627,894.7c0,0-0.3-10.9,3.7-11.6c3.9-0.7,4.9,3.6,4.9,3.6l4.1,0.4c0,0-2.1-9.4,1.7-11.4
					c3.8-2,26,3,28.9-0.1c2.9-3.1-0.3-22.2-6.2-24.3c-6-2.1-22.3-6.6-33.2,2.2c0,0-9.1-0.2-9.8,7.2
					C1620.4,868.2,1624.1,889.5,1627,894.7z"/>
			</g>
			<g>
				<path class="st38" d="M1655.1,923.4c-20.2-4.3-22.8-16.1-22.8-16.2c7.5,10.6,22,10.8,22,10.8
					C1654.4,919.5,1654.6,921.4,1655.1,923.4z"/>
			</g>
			<g>
				<g>
					<path class="st29" d="M1780.6,985.9c0,0,0.9,4.3,0.6,5.6c-0.3,1.3,8.7,1,8.7,1S1785.8,985,1780.6,985.9z"/>
				</g>
			</g>
			<g>
				<g>
					<path class="st37" d="M1787.3,972.3c0,0-8.3,6.9-7.4,8.4c1,1.5,2.2,1.4,2.2,1.4l-2.1,4.4c0,0,0.2,3.7,4.2,2.4
						c0,0-0.1,3.5,3.6,1.7c0,0,0.9,2.3,2.8,1.8c1.9-0.5,7-5.2,7-5.2s0.6-1.5-1.5-3.2c0,0,0.6-2.5-1.6-3.9c0,0-0.1-3-2.5-4.4
						c0,0-0.6-3.5-3.7-4.2C1788.2,971.6,1787.6,972,1787.3,972.3z"/>
				</g>
			</g>
			<g>
				<g>
					<path class="st28" d="M1772.3,982.4c0,0,7.3-1.6,11.6-0.8c1,0.2,1.9,0.6,2.1,1.5c0.2,1-1,2.5-4.1,3.4c-3.1,0.9-6.7,3.4-6.7,3.4
						S1771.7,989.9,1772.3,982.4z"/>
				</g>
			</g>
			<g>
				<path class="st42" d="M1710.2,1343.5c0,0,8,8.9,16,10.8c8.1,1.9,13.7,4.2,13.8,9.3c0.1,5.1-23.3,8.5-32.5,3.3
					c-13.8-7.7-15.2-5.4-16.7-9.2c-1.5-3.8,1.8-14.1,1.7-15.3C1692.5,1340.9,1710.2,1343.5,1710.2,1343.5z"/>
			</g>
			<g>
				<path class="st43" d="M1709.4,1339.2c0,0,1,4.2,0.9,4.2s-18.2,2.2-17.7-1.1c0.4-2.7,1.1-5.7,1.1-5.7L1709.4,1339.2z"/>
			</g>
			<g>
				<path class="st42" d="M1629,1345.8c0,0,5.9,8.7,13.7,10.7c7.7,2,12.7,5.7,13.1,10.7c0.4,5-18.2,11.4-31.3,2.7
					c-8.6-5.7-11.8-5.4-13.5-9c-1.7-3.6,0.9-13.8,0.7-15C1611.6,1344.4,1629,1345.8,1629,1345.8z"/>
			</g>
			<g>
				<path class="st43" d="M1628.8,1341.5c0,0,0.4,4.2,0.2,4.3s-17.4,3.3-17.3,0c0.1-2.6,1.1-5.9,1.1-5.9L1628.8,1341.5z"/>
			</g>
			<g>
				<path class="st44" d="M1692.9,1090c0,0,8.1,58.6,11.5,80.5c4,25.5,4.7,39.6,5.8,52.8c1.4,16.6,0.8,110.5,1.8,115.4
					c1,4.9-21.8,1.3-21.8,1.3s-11.2-106.8-15.4-124.5c-3.9-16.5-18.3-87.4-21.8-82.9c-3.5,4.5-7.9,82.8-10.6,95.8
					c-2.6,13-10.7,115.7-10.7,115.7s-18,2.7-22.8-1.4c0,0-2.2-87.7-0.5-112c0.6-9.3-10.9-111.3,3.9-152.4
					C1620.2,1056.4,1692.9,1090,1692.9,1090z"/>
			</g>
			<g>
				<path class="st45" d="M1690.7,1078.9c0,0,1.8,2.1,2.3,11.1c0,0-72.9-8.5-80.6-11.8c0,0-0.3-9.9,1.3-10.1
					C1615.5,1067.9,1690.7,1078.9,1690.7,1078.9z"/>
			</g>
			<g>
				<path class="st44" d="M1630.4,1069.8c0,0-1.6,10-1.7,12.6l-3.4-0.7c0,0,0.9-10.6,1.5-12.4L1630.4,1069.8z"/>
			</g>
			<g>
				<path class="st44" d="M1684.6,1077.7c0,0,1.3,9.1,1.3,12.6l-3.6-0.5c0,0-0.7-11.4-1.1-12.6L1684.6,1077.7z"/>
			</g>
			<g>
				<path class="st32" d="M1629.9,939.1c-4.9-7-9-11.6-9.8-12.5c0,0,0,0,0,0c-0.2,0.1-0.3,0.1-0.5,0.2c-0.2,0.1-0.4,0.2-0.6,0.2
					c-0.4,0.1-0.8,0.3-1.1,0.4c-0.8,0.3-1.6,0.6-2.4,0.9c-0.3,0.1-0.6,0.2-0.8,0.3c-8.9,3.5-26.6,9.5-29,11.2
					c-1.4,1-3.9,13.2-7.4,24.4c-7.2,23.1-12.9,53.6-13.1,62.3c0,0.1,0,0.3,0,0.4c0,1,1.9,5,4.9,10.8c4.7,8.9,12.1,22.1,19.4,34.8
					c-1.3,2.5-2.6,5-3.8,7.4c-1.8,3.6-3.3,7-4.5,10.2c-1.7,4.7-4,16.6,0.5,18.8l23.3,12.9c2.5-8.5,23-52.4,23-52.4
					c6.7-12.3,14.3-22.6,16.7-37.6c0.2-1.5,0.5-2.9,0.7-4.3c0.4-2.4,0.7-4.8,1-7.1c0.1-0.9,0.2-1.7,0.3-2.6
					c1.2-10.1,1.9-19,2.5-25.3C1651,973.2,1639.1,952.1,1629.9,939.1z M1601.9,1048.4c0,0-9.5-16-10.2-25.3
					c-1.1-15.4,10.5-33.1,10.5-33.1c0,0,0,0,0,0c0,0,0,0,0,0c0,0,0,0.1,0,0.1c0,0.1,0,0.1,0,0.2c0,0,0,0.1,0,0.1c0,0,0,0.1,0,0.1
					c2.3,9.1,3.3,42.9,3.3,42.9C1605.9,1042.7,1601.9,1048.4,1601.9,1048.4z"/>
			</g>
			<g>
				<path class="st32" d="M1774,1006.4c-0.5,2.7-60.3,34.6-64,33.2c-0.8-0.3-2.2-2.8-3.9-6.6c-1.7-3.7-3.7-8.7-5.6-13.8
					c-1.4-3.8-2.9-7.8-4.2-11.4c0-0.1,0-0.1-0.1-0.2c-1.5,8.2-4.2,16.8-3.5,25.9c0,0,0,0,0,0c-0.7,42.4,12,73.7,15.7,85.4
					c0.6,2-1,4.2-2.5,5.6l-3,2.8l-4.3,3.9c0,0-5.5-25.2-9.4-41.7c-0.1-0.4-0.2-0.9-0.3-1.3c-0.9-3.8-1.5-7.3-1.8-9.8v0
					c-1.4-13.1-5.8-30.6-7.7-47.7v0c-2.4-21.7-4.9-43.1-6.7-55.7c-0.2-1.1-0.3-2.1-0.5-3.1c-0.1-0.4-0.1-0.8-0.2-1.3
					c0-0.1,0-0.1,0-0.2c-0.1-0.6-0.2-1.2-0.3-1.8c0-0.1,0-0.2,0-0.3c-0.1-0.9-0.3-1.8-0.4-2.7c0,0,0,0,0,0
					c-4-25.9-7.1-36.3-7.1-36.3l0.2-0.1c2.1,1,4.6,2.1,7.3,3.4c5.6,2.6,11.9,5.5,16.8,7.9c4.8,2.3,9.2,4.6,9.7,5l25.1,64l43.7-20.9
					C1769.6,994.6,1774,1006.4,1774,1006.4z"/>
			</g>
			<g>
				<path class="st46" d="M1626.3,955l10.8,6.1l-4.6,4.7l12.3,66.2c2.5-15.5,3.6-30.2,4.5-39.3c2.8-30.1-27.2-64-29-66
					c-1.4,0.5-3,1.2-4.6,1.8L1626.3,955z"/>
			</g>
			<g>
				<path class="st46" d="M1660.8,927.6c0,0,7.2,14.6,11.9,47.4c1.8,12.6,4.3,34.1,6.7,55.7l2.5-62l-5.1-5.6l4.6-5.7l-10.9-25.5
					c-2.7-1.2-4-1.8-6.1-2.8L1660.8,927.6z"/>
			</g>
			<g>
				<path class="st47" d="M1619.6,926.7l10.4-5.4c0,0,2.5,8.5,20.9,17.7l-6.3,17.7L1619.6,926.7z"/>
			</g>
			<g>
				<path class="st47" d="M1655.1,923.4c0,0,1.4,5.6-4.2,15.6l12.3,16l-2.3-27.4L1655.1,923.4z"/>
			</g>
			<g>
				<path class="st45" d="M1650.9,939c0,0-2.4,9.5-1.5,12.2c0,0,5.2,1.9,9-0.5C1658.3,950.7,1655.6,944,1650.9,939z"/>
			</g>
			<g>
				<g>
					<path class="st48" d="M1663.1,1076c1.3-6.7,0.1-26.8,0-27.6l-1.1,0.1c0,0.2,1.3,20.8,0,27.3L1663.1,1076z"/>
				</g>
			</g>
			<g>
				<path class="st49" d="M1653.8,1072.9c0,0,10.7,1.3,14.3,2.2l-0.5,12l-14-1.5L1653.8,1072.9z"/>
			</g>
			<g>
				<path class="st45" d="M1656.2,949.8c0,0,12,30.2,10,64c-2,35-5.3,47.7-5.3,47.7l-7.4,9.2l-3.3-11.4c0,0,9.9-44.7,3.5-88.1
					c-1.2-7.9-2.9-22.8-2.9-22.8L1656.2,949.8z"/>
			</g>
			<g>
				<path class="st50" d="M1700.6,1019.2c-1.4-3.8-2.9-7.8-4.2-11.4c0-0.1,0-0.1-0.1-0.2v0c0,0,0.1-7.2-0.3-15.3
					c-0.4-7.7-1.2-16.2-2.8-20.1c0.2,0.4,7.2,12.3,7.7,34.7C1701,1010.7,1700.9,1014.8,1700.6,1019.2z"/>
			</g>
			<g>
				<path class="st28" d="M1621,1094c0,0,2.6,5.1,5.1,6s6.3,5,6.3,5l-18.1,9.5c0,0-4.8-9.4-5-15.4
					C1609.2,1093.1,1621,1094,1621,1094z"/>
			</g>
			<g>
				<path class="st40" d="M1622,1092.9l1.2,2.4c0,0-11.5,8.4-14.6,8.9l-1.1-3.2L1622,1092.9z"/>
			</g>
			<g>
				<path class="st32" d="M1601.9,1048.4l22.1,43.8l-17.6,10.1l-16.9-29.8C1589.6,1072.6,1591,1052.8,1601.9,1048.4z"/>
			</g>
			<g>
				<path class="st28" d="M1791.9,975.8c0,0-9.9,6.2-10.4,7.3c-0.5,1.1-2.9-2.5-2.4-3.4c0.5-0.9,7.8-7.5,8.7-7.9
					C1788.7,971.2,1792.4,972.8,1791.9,975.8z"/>
			</g>
			<g>
				<path class="st28" d="M1785.9,972.7c0,0,16-7.6,16.8-5.6c0.9,2-0.7,2.7-13.5,10.2C1776.8,984.4,1785.9,972.7,1785.9,972.7z"/>
			</g>
			<g>
				<path class="st50" d="M1604.8,1099.5l-19.1-19.5c1.2-2.4,2.5-4.9,3.8-7.4L1604.8,1099.5z"/>
			</g>
		</g>
		<g>
			<g>
				<g>
					<g>
						<path class="st28" d="M2021.5,1126.1c0,0,2,3.3,2.2,5.9c0.2,2.1,2,5.2,2.7,7c0.8,1.7,3.2,9.6,3.3,11.6c0,0.8-1.8,6.1-1.6,7.8
							c0.3,1.7,1.2,5-0.3,5.2c-1.5,0.2-3.2-2.5-3.2-2.5s0.1,1.6-1.1,2.1c-2.5,1.2-3.8,0.1-3.8,0.1s-0.9,1.7-2.1,1.9
							c-2.5,0.5-3.8-0.5-3.8-0.5s-1.1,1-2.9,0.9c-2.2,0-3.2-2-3.2-2s-2.8,0.6-3.7-0.8c-0.8-1.3-0.7-2.7-1-3.9
							c-0.3-1.2-0.1-12.1,3.6-19.9c3.7-7.8-0.9-15.4-0.9-15.4L2021.5,1126.1z"/>
					</g>
				</g>
			</g>
			<g>
				<g>
					<path class="st37" d="M2025.1,1160.1c0,0,0.3-9.7-2.3-11.8c-2.6-2.1-2.9,1.4-2.9,1.4s0.3-3.5-2.5-3.9c-2.8-0.5-2.9,3.7-2.9,3.7
						s-0.5-2.7-3.4-2.1c-2.9,0.6-2.2,4-2.2,4s-2.8-3.3-4.6-0.1c-3.1,5.4-0.1,11.9-0.1,11.9s0.9,1.5,3.7,0.8c0,0,1.9,3.8,6.1,1.1
						c0,0,4.3,2.4,5.9-1.4C2019.8,1163.4,2024.5,1165.6,2025.1,1160.1z"/>
				</g>
			</g>
			<path class="st51" d="M2054.6,985.8c0,0-16.7,55.6-22.3,76.1c-1.8,6.4-6,67.8-6.8,70.3c-0.8,2.5-21.9,5.9-21.9,5.9
				s2.6-76.8,2.8-81c0.2-4.2,23.3-90,30-93c5-2.3,7.7-0.4,14,4.3C2059.3,974.9,2054.6,985.8,2054.6,985.8z"/>
			<g>
				
					<rect x="2214.4" y="895.2" transform="matrix(0.8366 -0.5477 0.5477 0.8366 -125.7891 1371.9058)" class="st52" width="45.6" height="3.4"/>
			</g>
			<path class="st53" d="M2261.3,897.3c0,0-0.4,2.2-1,3c0,0-1.2,1.5-2.1,2.6c-0.3,0.4-0.5,0.7-0.6,0.9c-0.5,0.9-1.3,3.1-3.2,4.9
				c-1.8,1.8-8.9,7.7-8.9,7.7l-6.1-5.2l-6.3-2.8c0,0,3.5-15.3,5-17.2c0.1-0.2,0.3-0.4,0.5-0.5c1.4-1.5,3.1-2,4-2.7
				c0.3-0.3,3.5-2.6,4.7-2.3c1.6,0.4,2.5,1.4,2.9,2.4c0,0,3.1,1,4.3,2.8c0,0,2.9,0.8,3.7,3.5
				C2258.3,894.4,2261.1,895.5,2261.3,897.3z"/>
			<g>
				<g>
					<path class="st54" d="M2041,1365.2c0,0-1.5,10.5-1.7,12.1c-0.2,1.6-16.9-0.9-16.9-0.9l-1.4-12.6
						C2021.1,1363.8,2038.9,1363.7,2041,1365.2z"/>
				</g>
			</g>
			<g>
				<g>
					<path class="st55" d="M2039.5,1376c0,0,5.3,6.4,10.4,9.1c5.1,2.8,13.2,3.9,16.2,6.7c2.2,2.1,8,11-13.3,10.8
						c-21.3-0.2-31.5,1.3-33.8-2.2c-2.3-3.4,3.3-25.2,3.3-25.2S2027.3,1377.1,2039.5,1376z"/>
				</g>
			</g>
			<g>
				<g>
					<path class="st54" d="M2160.8,1365.2c0,0-1.5,10.5-1.7,12.1c-0.2,1.6-16.9-0.9-16.9-0.9l-1.4-12.6
						C2140.8,1363.8,2158.7,1363.7,2160.8,1365.2z"/>
				</g>
			</g>
			<g>
				<g>
					<path class="st55" d="M2159.3,1376c0,0,5.3,6.4,10.4,9.1c5.1,2.8,24,5,27,7.9c2.2,2.1,5.8,10.4-24.1,9.6
						c-21.3-0.6-31.5,1.3-33.8-2.2c-2.3-3.4,3.3-25.2,3.3-25.2S2146.8,1377.2,2159.3,1376z"/>
				</g>
			</g>
			<g>
				<g>
					<path class="st55" d="M2054.9,1094.1c0,0-15.7,25-14.5,47.5c1.2,22.6-5.7,47.2-8.1,70.8c-2.6,26.3-13.4,88.5-13.8,102.5
						c-0.4,14.1,1.7,58.9,1.7,58.9l21.6,0.5c0,0,18.1-108.7,22.8-119.8c4.7-11.1,27.9-90.2,28.7-99.1
						C2094,1146.6,2054.9,1094.1,2054.9,1094.1z"/>
				</g>
			</g>
			<g>
				<g>
					<path class="st55" d="M2137.6,1097.5c0,0,11.8,61.8,13.4,75.6c1.6,13.8,2.6,66.8,3.4,75.5c0.8,8.6,7.3,112.7,9.4,125.7h-27.6
						c0,0-21.1-75.8-21.1-111.7c0-35.9-16.3-78-26.9-101.7c-10.5-23.7-34.7-24.2-41.2-68.1C2047,1092.8,2128.8,1083.6,2137.6,1097.5
						z"/>
				</g>
			</g>
			<g>
				<g>
					<path class="st28" d="M2081.1,884.3c0,0,21.1-7.9,30.8,8.2c9.7,16,8.8,48.2-1.8,52.1c-10.6,4-26.6,1.9-32-8.2
						c-5.4-10-10.4-24.6-10.1-34.3C2068.1,892.5,2075.6,887.1,2081.1,884.3z"/>
				</g>
			</g>
			<g>
				<g>
					<path class="st28" d="M2107.8,945.3c0,0-0.9,5.7,0.6,8.5c1.4,2.8-27.3,2.9-27.3,2.9s-2.3-15.3-6.8-28.1
						C2069.8,915.7,2107.8,945.3,2107.8,945.3z"/>
				</g>
			</g>
			<g>
				<g>
					<path class="st56" d="M2074.3,928.6c0,0,2,3.3,10.1,2c8.1-1.3,18-12.1,21.4-13.2c3.4-1.2,3.4-3.2,3.4-3.2l2.1,3.1l3.6,0.2
						c0,0-3.3-9.6,1.7-13.6c4.9-3.9-5.1-31.2-31.1-22.1c0,0-20,5.5-19.2,16.9C2066.9,910,2069.8,922.9,2074.3,928.6z"/>
				</g>
			</g>
			<g>
				<g>
					<path class="st57" d="M2110,953.5c0,0-0.1-5.4-2.5-5.9c-2.4-0.5-26.8-2.9-29.8-1.7v6.2C2077.7,952.2,2083.5,955.7,2110,953.5z"
						/>
				</g>
			</g>
			<g>
				<g>
					<path class="st28" d="M2108.6,910c-0.5-1.9-5.3-7.3-7.2-1.5c-1.9,5.8,2.8,13.7,5.4,13C2109.4,920.8,2109.8,914.9,2108.6,910z"
						/>
				</g>
			</g>
			<g>
				<g>
					<path class="st51" d="M2150.4,961.6c-16.7-2.2-40.3-8.1-40.3-8.1l-32.3-1.3c0,0-29.7,6.5-41.3,11.8c-1.1,0.5-1.1,26.4-4.2,33.3
						l9.7,20.4c0,0,5.6,40.5,6.8,58.5c0.5,8.3-11.5,77.5-11.5,77.5s12.9,3.8,35,6.2c22,2.4,77.1-0.9,77.5-3.5
						c0.3-2.6-10.7-97-11.2-101.9c-0.8-7.5,2.6-47.4,2.6-47.4c5.1-4,49.8-24.7,62-35.5c3.3-2.9,17-16.3,21-20.9
						c13.9-16.4,25.2-30.5,26.6-33.5c1.6-1.7-15.1-10.8-16.6-11.3c-1.3-0.4-20.1,23.8-27.3,31.7c-3.2,3.5-16.6,13.2-16.6,13.2
						S2160.8,962.2,2150.4,961.6z"/>
				</g>
			</g>
			<g>
				<g>
					<path class="st56" d="M2075.1,886.2c0,0-26.9,2.1-0.8,42.4L2075.1,886.2z"/>
				</g>
			</g>
			<polygon class="st58" points="2257.2,885.8 2259.4,882.4 2255.3,882.9 			"/>
		</g>
	</g>
</g>
</svg>
